<?xml version="1.0" standalone="no"?>
<!DOCTYPE svg PUBLIC "-//W3C//DTD SVG 20010904//EN"
 "http://www.w3.org/TR/2001/REC-SVG-20010904/DTD/svg10.dtd">
<svg version="1.0" xmlns="http://www.w3.org/2000/svg"
 width="238.000000pt" height="250.000000pt" viewBox="0 0 238.000000 250.000000"
 preserveAspectRatio="xMidYMid meet">

<g transform="translate(0.000000,250.000000) scale(0.100000,-0.100000)"
fill="#000000" stroke="none">
<path d="M969 1689 c-106 -86 -301 -290 -348 -362 -37 -56 -43 -73 -38 -102 8
-51 58 -155 74 -155 25 0 24 25 -2 83 -14 32 -25 68 -25 81 0 40 93 157 234
294 76 73 146 137 157 142 16 9 27 3 70 -37 28 -26 82 -87 121 -135 38 -48 74
-88 79 -88 5 0 12 7 15 15 7 18 -30 75 -95 147 -24 27 -40 52 -35 56 5 4 21
18 36 31 l27 24 43 -39 c61 -55 141 -147 199 -231 l50 -72 -31 -16 c-93 -48
-241 -211 -368 -403 -52 -80 -55 -82 -73 -66 -20 18 -49 13 -49 -9 0 -13 60
-77 73 -77 5 0 66 86 83 118 1 1 28 -24 60 -58 33 -34 63 -57 69 -52 6 4 46
60 88 125 138 208 265 343 370 393 21 10 37 25 37 34 0 41 -199 294 -288 366
-60 49 -51 50 -126 -9 l-35 -29 -50 42 c-56 47 -52 48 -118 -14 l-32 -29 -37
29 c-76 60 -65 60 -135 3z m553 -76 c63 -64 208 -249 208 -265 0 -4 -26 -25
-57 -46 -99 -68 -213 -197 -333 -377 -29 -44 -55 -82 -57 -85 -5 -5 -82 82
-83 93 0 5 31 50 69 101 83 110 191 215 266 257 30 17 55 35 55 40 0 12 -87
135 -158 223 l-56 69 34 29 c19 15 37 28 40 28 3 0 35 -30 72 -67z"/>
<path d="M975 1570 c-4 -6 4 -24 17 -39 12 -16 55 -68 93 -115 39 -47 76 -86
83 -86 43 0 5 67 -113 198 -46 51 -67 62 -80 42z"/>
<path d="M891 1466 c-9 -11 5 -36 71 -125 79 -105 118 -136 118 -93 0 18 -157
232 -170 232 -4 0 -13 -6 -19 -14z"/>
<path d="M803 1364 c-8 -21 12 -57 85 -159 55 -77 83 -97 90 -65 1 8 -24 52
-55 97 -32 44 -66 95 -75 112 -19 34 -35 40 -45 15z"/>
<path d="M710 1255 c0 -38 121 -235 144 -235 29 0 27 22 -7 74 -19 29 -49 81
-66 114 -23 45 -37 62 -51 62 -11 0 -20 -7 -20 -15z"/>
</g>
</svg>
